<svg fill="none" height="100%" width="100%" viewBox="0 0 512 512" xmlns:xlink="http://www.w3.org/1999/xlink" xmlns="http://www.w3.org/2000/svg"><defs><filter id="i0"><feColorMatrix values="0 0 0 0 1 0 0 0 0 1 0 0 0 0 1 0 0 0 1 0" type="matrix" /></filter><mask height="20000" width="20000" y="-10000" x="-10000" maskContentUnits="userSpaceOnUse" maskUnits="userSpaceOnUse" style="mask-type: alpha" mask-type="alpha" id="i1"><g filter="url(#i0)" transform="matrix(1,0,0,1,118.161,233.997)"><g id="i2" transform="matrix(1,0,0,1,137.832,79.36)"><path fill="#1056ad" d="M137.325,-219.11C137.325,-219.11,-137.826,-219.11,-137.826,-219.11C-137.826,-219.11,-137.569,-35.833,-137.569,-35.833C-137.569,-35.833,-137.494,-35.833,-137.494,-35.833C-137.55,-34.893,-137.582,-33.971,-137.561,-33.1C-137.282,-24.879,-133.876,-15.721,-129.038,-9.101C-126.899,-2.968,-46.157,56.751,-39.561,62.556C-36.524,64.86,-30.012,68.687,-26.524,70.221C-5.593,79.11,20.194,77.597,39.483,65.339C63.201,46.725,89.746,22.648,112.869,3.38C120.74,-3.065,129.511,-10.621,133.821,-20.087C136.239,-25.206,137.423,-30.537,137.559,-35.833C137.559,-35.833,137.582,-35.833,137.582,-35.833C137.582,-35.833,137.325,-219.11,137.325,-219.11Z" /></g></g></mask><filter id="i3"><feColorMatrix values="0 0 0 0 1 0 0 0 0 1 0 0 0 0 1 0 0 0 1 0" type="matrix" /></filter><mask height="20000" width="20000" y="-10000" x="-10000" maskContentUnits="userSpaceOnUse" maskUnits="userSpaceOnUse" style="mask-type: alpha" mask-type="alpha" id="i4"><g filter="url(#i3)" transform="matrix(1,0,0,1,118.161,233.997)"><g id="i2" transform="matrix(1,0,0,1,137.832,79.36)"><path fill="#1056ad" d="M137.325,-219.11C137.325,-219.11,-137.826,-219.11,-137.826,-219.11C-137.826,-219.11,-137.569,-35.833,-137.569,-35.833C-137.569,-35.833,-137.494,-35.833,-137.494,-35.833C-137.55,-34.893,-137.582,-33.971,-137.561,-33.1C-137.282,-24.879,-133.876,-15.721,-129.038,-9.101C-126.899,-2.968,-46.157,56.751,-39.561,62.556C-36.524,64.86,-30.012,68.687,-26.524,70.221C-5.593,79.11,20.194,77.597,39.483,65.339C63.201,46.725,89.746,22.648,112.869,3.38C120.74,-3.065,129.511,-10.621,133.821,-20.087C136.239,-25.206,137.423,-30.537,137.559,-35.833C137.559,-35.833,137.582,-35.833,137.582,-35.833C137.582,-35.833,137.325,-219.11,137.325,-219.11Z" /></g></g></mask></defs><g transform="matrix(1.04,0,0,1.05,60.678,101.059)" id="i5"><g stroke-dashoffset="-74.722" stroke-dasharray="0 100" pathLength="100" id="i2" transform="matrix(1,0,0,1,190.352,166.54)"><path stroke-linejoin="round" stroke-linecap="round" stroke-width="12" stroke="#18560b" d="M-140.212,4.331C-139.934,12.552,-136.527,21.71,-131.69,28.33C-129.55,34.463,-48.809,94.182,-42.212,99.985C-39.176,102.291,-32.665,106.118,-29.176,107.651C-8.245,116.541,17.542,115.027,36.831,102.769C60.549,84.156,87.094,60.079,110.217,40.81C118.088,34.366,126.858,26.81,131.169,17.344C140.352,-2.095,131.879,-24.587,114.86,-36.565C112.318,-38.532,106.602,-42.955,104.015,-44.958C104.015,-44.958,95.833,-51.288,95.833,-51.288C87.243,-57.934,75.475,-67.041,66.88,-73.691C59.796,-79.172,49.946,-86.794,42.889,-92.255C17.883,-115.047,-23.999,-116.54,-49.538,-93.842C-51.959,-91.776,-57.404,-87.131,-59.869,-85.028C-59.869,-85.028,-67.662,-78.379,-67.662,-78.379C-67.662,-78.379,-76.505,-70.835,-76.505,-70.835C-84.693,-63.849,-95.902,-54.286,-104.085,-47.305C-107.544,-44.354,-114.669,-38.275,-118.094,-35.353C-125.106,-29.774,-132.57,-22.422,-136.376,-14.165C-138.749,-8.944,-140.352,-1.405,-140.212,4.331Z" /><animate repeatCount="indefinite" fill="freeze" begin="0s" dur="3.033s" calcMode="spline" keySplines="0 0 1 1; 0 0 1 1; 0 0 1 1; 0 0 1 1; 0 0 1 1; 0 0 1 1; 0 0 1 1" keyTimes="0; 0.164835; 0.32967; 0.494505; 0.648352; 0.824176; 0.934066; 1" values="0 100; 100 0; 100 0; 100 0; 100 0; 100 0; 0 100; 0 100" attributeName="stroke-dasharray" /><animate repeatCount="indefinite" fill="freeze" begin="0s" dur="3.033s" calcMode="spline" keySplines="0 0 1 1; 0 0 1 1; 0 0 1 1; 0 0 1 1; 0 0 1 1; 0 0 1 1; 0 0 1 1" keyTimes="0; 0.164835; 0.32967; 0.494505; 0.648352; 0.824176; 0.934066; 1" values="-74.722; -74.722; -74.722; -74.722; -74.722; -74.722; -74.722; -74.722" attributeName="stroke-dashoffset" /></g></g><g mask="url(#i1)" id="i6"><g transform="translate(256,488)"><animateTransform repeatCount="indefinite" type="translate" attributeName="transform" dur="3.033s" begin="0s" calcMode="spline" values="256 488; 256 488; 256 217; 256 219.09; 256 221.481; 256 217; 256 217; 256 484; 256 484" keyTimes="0; 0.142857; 0.318682; 0.329671; 0.34066; 0.362638; 0.769231; 0.824176; 1" keySplines="0 0 1 1; 0.804 0 0 1; 0.297 0 0.659 0.437; 0.181 1 0.833 0.833; 0 0 1 1; 0.167 0.167 0.667 1; 1 0 0.667 1; 0 0 1 1" fill="freeze" /><g transform="scale(1,1) translate(0,0)"><g transform="matrix(1,0,0,1,-256,-212)" id="i7"><g id="i8" transform="matrix(1,0,0,1,255.993,313.357)"><path fill="#2b9116" d="M137.582,-79.11C137.582,-79.11,-137.569,-79.11,-137.569,-79.11C-137.569,-79.11,-137.569,-35.833,-137.569,-35.833C-137.569,-35.833,-137.494,-35.833,-137.494,-35.833C-137.55,-34.893,-137.582,-33.971,-137.561,-33.1C-137.282,-24.879,-133.876,-15.721,-129.038,-9.101C-126.899,-2.968,-46.157,56.751,-39.561,62.556C-36.524,64.86,-30.012,68.687,-26.524,70.221C-5.593,79.11,20.194,77.597,39.483,65.339C63.201,46.725,89.746,22.648,112.869,3.38C120.74,-3.065,129.511,-10.621,133.821,-20.087C136.239,-25.206,137.423,-30.537,137.559,-35.833C137.559,-35.833,137.582,-35.833,137.582,-35.833C137.582,-35.833,137.582,-79.11,137.582,-79.11Z" /></g><g id="i2" transform="matrix(1,0,0,1,258.645,232.649)"><path fill="#43d324" d="M-140.212,4.33C-139.934,12.551,-136.527,21.709,-131.69,28.329C-129.55,34.462,-48.809,94.181,-42.212,99.985C-39.176,102.29,-32.664,106.117,-29.175,107.65C-8.244,116.541,17.543,115.026,36.832,102.769C60.55,84.155,87.094,60.078,110.217,40.809C118.088,34.365,126.858,26.809,131.169,17.343C140.352,-2.096,131.88,-24.588,114.861,-36.566C112.319,-38.533,106.602,-42.956,104.015,-44.959C104.015,-44.959,95.834,-51.289,95.834,-51.289C87.244,-57.935,75.475,-67.042,66.88,-73.692C59.796,-79.173,49.946,-86.795,42.889,-92.255C17.883,-115.048,-23.999,-116.541,-49.538,-93.843C-51.959,-91.777,-57.404,-87.132,-59.869,-85.029C-59.869,-85.029,-67.662,-78.38,-67.662,-78.38C-67.662,-78.38,-76.505,-70.836,-76.505,-70.836C-84.693,-63.85,-95.902,-54.287,-104.085,-47.306C-107.544,-44.355,-114.669,-38.276,-118.094,-35.354C-125.106,-29.775,-132.57,-22.423,-136.376,-14.166C-138.749,-8.945,-140.352,-1.406,-140.212,4.33Z" /></g></g></g></g></g><g display="none" transform="matrix(1,0,0,1,118.161,233.997)" id="m9"><g id="i2" transform="matrix(1,0,0,1,137.832,79.36)"><path fill="#1056ad" d="M137.325,-219.11C137.325,-219.11,-137.826,-219.11,-137.826,-219.11C-137.826,-219.11,-137.569,-35.833,-137.569,-35.833C-137.569,-35.833,-137.494,-35.833,-137.494,-35.833C-137.55,-34.893,-137.582,-33.971,-137.561,-33.1C-137.282,-24.879,-133.876,-15.721,-129.038,-9.101C-126.899,-2.968,-46.157,56.751,-39.561,62.556C-36.524,64.86,-30.012,68.687,-26.524,70.221C-5.593,79.11,20.194,77.597,39.483,65.339C63.201,46.725,89.746,22.648,112.869,3.38C120.74,-3.065,129.511,-10.621,133.821,-20.087C136.239,-25.206,137.423,-30.537,137.559,-35.833C137.559,-35.833,137.582,-35.833,137.582,-35.833C137.582,-35.833,137.325,-219.11,137.325,-219.11Z" /></g></g><g opacity="0" visibility="hidden" id="i6"><animate repeatCount="indefinite" begin="0s" calcMode="discrete" dur="3.033s" values="hidden; visible; visible; visible" keyTimes="0; 0.142984; 0.99989; 1" attributeName="visibility" /><g transform="translate(256,488)"><animateTransform repeatCount="indefinite" type="translate" attributeName="transform" dur="3.033s" begin="0s" calcMode="spline" values="256 488; 256 488; 256 217; 256 219.09; 256 221.481; 256 217; 256 217; 256 484; 256 484" keyTimes="0; 0.142857; 0.318682; 0.329671; 0.34066; 0.362638; 0.769231; 0.824176; 1" keySplines="0 0 1 1; 0.804 0 0 1; 0.297 0 0.659 0.437; 0.181 1 0.833 0.833; 0 0 1 1; 0.167 0.167 0.667 1; 1 0 0.667 1; 0 0 1 1" fill="freeze" /><g transform="scale(1,1) translate(0,0)" /></g></g><g mask="url(#i4)" id="i6"><g transform="translate(256,488)"><animateTransform repeatCount="indefinite" type="translate" attributeName="transform" dur="3.033s" begin="0s" calcMode="spline" values="256 488; 256 488; 256 217; 256 219.09; 256 221.481; 256 217; 256 217; 256 484; 256 484" keyTimes="0; 0.142857; 0.318682; 0.329671; 0.34066; 0.362638; 0.769231; 0.824176; 1" keySplines="0 0 1 1; 0.804 0 0 1; 0.297 0 0.659 0.437; 0.181 1 0.833 0.833; 0 0 1 1; 0.167 0.167 0.667 1; 1 0 0.667 1; 0 0 1 1" fill="freeze" /><g transform="scale(1,1) translate(0,0)"><g visibility="hidden" id="i10"><animate repeatCount="indefinite" begin="0s" calcMode="discrete" dur="3.033s" values="hidden; visible; visible; visible" keyTimes="0; 0.153983; 0.99989; 1" attributeName="visibility" /><g transform="translate(2.255,27.5)"><animateTransform repeatCount="indefinite" type="translate" attributeName="transform" dur="3.033s" begin="0s" calcMode="spline" values="2.255 27.5; 2.255 27.5; 2.255 14.137; 2.255 14.137; 2.255 27.5; 2.255 27.5" keyTimes="0; 0.373626; 0.483516; 0.65934; 0.769231; 1" keySplines="0 0 1 1; 0.333 0 0.667 1; 0 0 1 1; 0.333 0 0.667 1; 0 0 1 1" fill="freeze" /><g transform="scale(1,1) translate(-71.355,-62.699)"><g id="i11" transform="matrix(1,0,0,1,60.613,50.545)"><path fill="#2b9116" fill-rule="evenodd" d="M18.43,-20.549C18.43,-20.549,21.176,-21.924,21.176,-21.924C21.176,-21.924,22.557,-22.811,22.557,-22.811C33.336,-27.739,53.039,-32.39,58.732,-38.36C59.559,-39.227,59.636,-40.588,59.617,-41.787C59.361,-44.293,60.364,-42.531,58.769,-44.567C55.584,-50.295,48.234,-50.145,42.713,-48.226C35.062,-46.216,27.194,-43.494,19.942,-40.365C-11.135,-26.611,-36.528,-4.916,-57,22.258C-57.826,23.651,-58.312,24.907,-58.52,27.274C-58.414,29.504,-57.47,31.078,-55.728,32.426C-51.281,35.794,-44.222,35.467,-40.388,31.302C-24.308,9.01,-6.512,-8.194,18.43,-20.549Z"><animate repeatCount="indefinite" attributeName="d" dur="3.033s" begin="0s" calcMode="spline" values="M18.43,-20.549C18.43,-20.549,21.176,-21.924,21.176,-21.924C21.176,-21.924,22.557,-22.811,22.557,-22.811C33.336,-27.739,53.039,-32.39,58.732,-38.36C59.559,-39.227,59.636,-40.588,59.617,-41.787C59.361,-44.293,60.364,-42.531,58.769,-44.567C55.584,-50.295,48.234,-50.145,42.713,-48.226C35.062,-46.216,27.194,-43.494,19.942,-40.365C-11.135,-26.611,-36.528,-4.916,-57,22.258C-57.826,23.651,-58.312,24.907,-58.52,27.274C-58.414,29.504,-57.47,31.078,-55.728,32.426C-51.281,35.794,-44.222,35.467,-40.388,31.302C-24.308,9.01,-6.512,-8.194,18.43,-20.549Z; M18.43,-20.549C18.43,-20.549,21.176,-21.924,21.176,-21.924C21.176,-21.924,22.557,-22.811,22.557,-22.811C33.336,-27.739,53.039,-32.39,58.732,-38.36C59.559,-39.227,59.636,-40.588,59.617,-41.787C59.361,-44.293,60.364,-42.531,58.769,-44.567C55.584,-50.295,48.234,-50.145,42.713,-48.226C35.062,-46.216,27.194,-43.494,19.942,-40.365C-11.135,-26.611,-36.528,-4.916,-57,22.258C-57.826,23.651,-58.312,24.907,-58.52,27.274C-58.414,29.504,-57.47,31.078,-55.728,32.426C-51.281,35.794,-44.222,35.467,-40.388,31.302C-24.308,9.01,-6.512,-8.194,18.43,-20.549Z; M22.555,-8.3C22.555,-8.3,22.551,-8.3,22.551,-8.3C22.551,-8.3,22.579,-8.311,22.579,-8.311C33.358,-13.239,53.06,-17.89,58.753,-23.86C59.58,-24.727,59.658,-26.088,59.639,-27.287C59.383,-29.793,60.364,-42.531,58.769,-44.567C55.584,-50.295,48.234,-50.145,42.713,-48.226C35.062,-46.216,27.194,-43.494,19.942,-40.365C-11.135,-26.611,-36.747,-4.947,-57.219,22.227C-60.364,25.946,-58.666,38.845,-58.874,41.212C-58.768,43.442,-57.449,45.578,-55.707,46.926C-51.26,50.294,-44.201,49.967,-40.367,45.802C-24.287,23.51,-2.387,4.055,22.555,-8.3Z; M22.555,-8.3C22.555,-8.3,22.551,-8.3,22.551,-8.3C22.551,-8.3,22.579,-8.311,22.579,-8.311C33.358,-13.239,53.06,-17.89,58.753,-23.86C59.58,-24.727,59.658,-26.088,59.639,-27.287C59.383,-29.793,60.364,-42.531,58.769,-44.567C55.584,-50.295,48.234,-50.145,42.713,-48.226C35.062,-46.216,27.194,-43.494,19.942,-40.365C-11.135,-26.611,-36.747,-4.947,-57.219,22.227C-60.364,25.946,-58.666,38.845,-58.874,41.212C-58.768,43.442,-57.449,45.578,-55.707,46.926C-51.26,50.294,-44.201,49.967,-40.367,45.802C-24.287,23.51,-2.387,4.055,22.555,-8.3Z; M18.43,-20.549C18.43,-20.549,21.176,-21.924,21.176,-21.924C21.176,-21.924,22.557,-22.811,22.557,-22.811C33.336,-27.739,53.039,-32.39,58.732,-38.36C59.559,-39.227,59.636,-40.588,59.617,-41.787C59.361,-44.293,60.364,-42.531,58.769,-44.567C55.584,-50.295,48.234,-50.145,42.713,-48.226C35.062,-46.216,27.194,-43.494,19.942,-40.365C-11.135,-26.611,-36.528,-4.916,-57,22.258C-57.826,23.651,-58.312,24.907,-58.52,27.274C-58.414,29.504,-57.47,31.078,-55.728,32.426C-51.281,35.794,-44.222,35.467,-40.388,31.302C-24.308,9.01,-6.512,-8.194,18.43,-20.549Z; M18.43,-20.549C18.43,-20.549,21.176,-21.924,21.176,-21.924C21.176,-21.924,22.557,-22.811,22.557,-22.811C33.336,-27.739,53.039,-32.39,58.732,-38.36C59.559,-39.227,59.636,-40.588,59.617,-41.787C59.361,-44.293,60.364,-42.531,58.769,-44.567C55.584,-50.295,48.234,-50.145,42.713,-48.226C35.062,-46.216,27.194,-43.494,19.942,-40.365C-11.135,-26.611,-36.528,-4.916,-57,22.258C-57.826,23.651,-58.312,24.907,-58.52,27.274C-58.414,29.504,-57.47,31.078,-55.728,32.426C-51.281,35.794,-44.222,35.467,-40.388,31.302C-24.308,9.01,-6.512,-8.194,18.43,-20.549Z" keyTimes="0; 0.373626; 0.483517; 0.659341; 0.769231; 1" keySplines="0 0 1 1; 0.333 0 0.667 1; 0.333 0 0.667 1; 0.333 0 0.667 1; 0 0 1 1" fill="freeze" /></path></g><g id="i12" transform="matrix(1,0,0,1,81.829,70.6)"><path d="M13.679,-17.906C13.679,-17.906,14.747,-18.419,14.751,-18.421C26.514,-24.965,44.102,-29.635,46.636,-31.549C47.807,-32.434,48.258,-34.13,48.239,-35.605C48.298,-37.773,48.857,-36.225,47.543,-37.766C45.636,-41.196,41.263,-42.375,37.585,-41.559C36.761,-41.367,14.781,-34.358,3.802,-27.89C-16.645,-15.844,-34.714,-1.086,-47.836,18.113C-48.857,19.521,-48.185,18.366,-48.377,20.214C-48.305,21.683,-47.56,23.181,-46.534,24.218C-42.805,27.875,-35.716,27.564,-32.678,23.179C-20.558,6.397,-4.554,-7.921,13.679,-17.906Z" fill="#2b9116"><animate repeatCount="indefinite" attributeName="d" dur="3.033s" begin="0s" calcMode="spline" values="M13.679,-17.906C13.679,-17.906,14.747,-18.419,14.751,-18.421C26.514,-24.965,44.102,-29.635,46.636,-31.549C47.807,-32.434,48.258,-34.13,48.239,-35.605C48.298,-37.773,48.857,-36.225,47.543,-37.766C45.636,-41.196,41.263,-42.375,37.585,-41.559C36.761,-41.367,14.781,-34.358,3.802,-27.89C-16.645,-15.844,-34.714,-1.086,-47.836,18.113C-48.857,19.521,-48.185,18.366,-48.377,20.214C-48.305,21.683,-47.56,23.181,-46.534,24.218C-42.805,27.875,-35.716,27.564,-32.678,23.179C-20.558,6.397,-4.554,-7.921,13.679,-17.906Z; M13.679,-17.906C13.679,-17.906,14.747,-18.419,14.751,-18.421C26.514,-24.965,44.102,-29.635,46.636,-31.549C47.807,-32.434,48.258,-34.13,48.239,-35.605C48.298,-37.773,48.857,-36.225,47.543,-37.766C45.636,-41.196,41.263,-42.375,37.585,-41.559C36.761,-41.367,14.781,-34.358,3.802,-27.89C-16.645,-15.844,-34.714,-1.086,-47.836,18.113C-48.857,19.521,-48.185,18.366,-48.377,20.214C-48.305,21.683,-47.56,23.181,-46.534,24.218C-42.805,27.875,-35.716,27.564,-32.678,23.179C-20.558,6.397,-4.554,-7.921,13.679,-17.906Z; M13.699,-3.407C13.699,-3.407,13.685,-3.418,13.689,-3.42C25.452,-9.964,44.122,-15.135,46.656,-17.049C47.827,-17.934,48.278,-19.63,48.259,-21.105C48.318,-23.273,48.857,-36.225,47.543,-37.766C45.636,-41.196,41.263,-42.375,37.585,-41.559C36.761,-41.367,14.781,-34.358,3.802,-27.89C-16.645,-15.844,-34.714,-1.085,-47.836,18.114C-48.857,19.522,-48.165,32.866,-48.357,34.714C-48.285,36.183,-47.541,37.681,-46.515,38.718C-42.786,42.375,-35.697,42.064,-32.659,37.679C-20.539,20.897,-4.534,6.578,13.699,-3.407Z; M13.699,-3.407C13.699,-3.407,13.685,-3.418,13.689,-3.42C25.452,-9.964,44.122,-15.135,46.656,-17.049C47.827,-17.934,48.278,-19.63,48.259,-21.105C48.318,-23.273,48.857,-36.225,47.543,-37.766C45.636,-41.196,41.263,-42.375,37.585,-41.559C36.761,-41.367,14.781,-34.358,3.802,-27.89C-16.645,-15.844,-34.714,-1.085,-47.836,18.114C-48.857,19.522,-48.165,32.866,-48.357,34.714C-48.285,36.183,-47.541,37.681,-46.515,38.718C-42.786,42.375,-35.697,42.064,-32.659,37.679C-20.539,20.897,-4.534,6.578,13.699,-3.407Z; M13.679,-17.906C13.679,-17.906,14.747,-18.419,14.751,-18.421C26.514,-24.965,44.102,-29.635,46.636,-31.549C47.807,-32.434,48.258,-34.13,48.239,-35.605C48.298,-37.773,48.857,-36.225,47.543,-37.766C45.636,-41.196,41.263,-42.375,37.585,-41.559C36.761,-41.367,14.781,-34.358,3.802,-27.89C-16.645,-15.844,-34.714,-1.086,-47.836,18.113C-48.857,19.521,-48.185,18.366,-48.377,20.214C-48.305,21.683,-47.56,23.181,-46.534,24.218C-42.805,27.875,-35.716,27.564,-32.678,23.179C-20.558,6.397,-4.554,-7.921,13.679,-17.906Z; M13.679,-17.906C13.679,-17.906,14.747,-18.419,14.751,-18.421C26.514,-24.965,44.102,-29.635,46.636,-31.549C47.807,-32.434,48.258,-34.13,48.239,-35.605C48.298,-37.773,48.857,-36.225,47.543,-37.766C45.636,-41.196,41.263,-42.375,37.585,-41.559C36.761,-41.367,14.781,-34.358,3.802,-27.89C-16.645,-15.844,-34.714,-1.086,-47.836,18.113C-48.857,19.521,-48.185,18.366,-48.377,20.214C-48.305,21.683,-47.56,23.181,-46.534,24.218C-42.805,27.875,-35.716,27.564,-32.678,23.179C-20.558,6.397,-4.554,-7.921,13.679,-17.906Z" keyTimes="0; 0.373626; 0.483517; 0.659341; 0.769231; 1" keySplines="0 0 1 1; 0.333 0 0.667 1; 0.333 0 0.667 1; 0.333 0 0.667 1; 0 0 1 1" fill="freeze" /></path></g><g id="i13" transform="matrix(1,0,0,1,99.987,88.817)"><path d="M40.158,-46.061C40.102,-46.603,40.353,-32.417,40.109,-32.902C38.73,-35.563,35.898,-36.33,33.038,-36.185C33.038,-36.185,-3.785,-20.728,-3.785,-20.728C-18.316,-11.077,-32.995,0.97,-40.801,15.769C-40.815,16.347,-40.888,17.22,-40.708,17.794C-40.385,19.336,-39.245,20.695,-37.903,21.482C-37.903,21.482,-37.091,21.894,-37.091,21.894C-37.091,21.894,-36.222,22.217,-36.221,22.217C-33.964,22.893,-31.343,22.589,-29.352,21.309C-28.999,21.077,-28.359,20.532,-28.074,20.221C-28.074,20.221,-27.564,19.564,-27.564,19.563C-12.007,-2.069,11.103,-20.067,37.114,-26.355C38.663,-27.035,39.482,-27.859,39.998,-29.495C40.416,-30.511,40.156,-44.774,40.158,-46.061Z" fill="#2b9116"><animate repeatCount="indefinite" attributeName="d" dur="3.033s" begin="0s" calcMode="spline" values="M40.158,-46.061C40.102,-46.603,40.353,-32.417,40.109,-32.902C38.73,-35.563,35.898,-36.33,33.038,-36.185C33.038,-36.185,-3.785,-20.728,-3.785,-20.728C-18.316,-11.077,-32.995,0.97,-40.801,15.769C-40.815,16.347,-40.888,17.22,-40.708,17.794C-40.385,19.336,-39.245,20.695,-37.903,21.482C-37.903,21.482,-37.091,21.894,-37.091,21.894C-37.091,21.894,-36.222,22.217,-36.221,22.217C-33.964,22.893,-31.343,22.589,-29.352,21.309C-28.999,21.077,-28.359,20.532,-28.074,20.221C-28.074,20.221,-27.564,19.564,-27.564,19.563C-12.007,-2.069,11.103,-20.067,37.114,-26.355C38.663,-27.035,39.482,-27.859,39.998,-29.495C40.416,-30.511,40.156,-44.774,40.158,-46.061Z; M40.158,-46.061C40.102,-46.603,40.353,-32.417,40.109,-32.902C38.73,-35.563,35.898,-36.33,33.038,-36.185C33.038,-36.185,-3.785,-20.728,-3.785,-20.728C-18.316,-11.077,-32.995,0.97,-40.801,15.769C-40.815,16.347,-40.888,17.22,-40.708,17.794C-40.385,19.336,-39.245,20.695,-37.903,21.482C-37.903,21.482,-37.091,21.894,-37.091,21.894C-37.091,21.894,-36.222,22.217,-36.221,22.217C-33.964,22.893,-31.343,22.589,-29.352,21.309C-28.999,21.077,-28.359,20.532,-28.074,20.221C-28.074,20.221,-27.564,19.564,-27.564,19.563C-12.007,-2.069,11.103,-20.067,37.114,-26.355C38.663,-27.035,39.482,-27.859,39.998,-29.495C40.416,-30.511,40.156,-44.774,40.158,-46.061Z; M40.678,-31.155C40.622,-31.697,40.353,-32.417,40.109,-32.902C38.73,-35.563,35.898,-36.33,33.038,-36.185C33.038,-36.185,-3.785,-20.728,-3.785,-20.728C-18.316,-11.077,-32.995,0.97,-40.801,15.769C-40.815,16.347,-40.918,30.657,-40.738,31.231C-40.415,32.773,-39.274,34.132,-37.932,34.919C-37.932,34.919,-37.12,35.331,-37.12,35.331C-37.12,35.331,-36.252,35.654,-36.251,35.654C-33.994,36.33,-31.373,36.026,-29.382,34.746C-29.029,34.514,-28.389,33.969,-28.104,33.658C-28.104,33.658,-27.594,33.001,-27.594,33C-12.037,11.368,11.066,-5.286,37.077,-11.574C38.626,-12.254,39.983,-13.547,40.499,-15.183C40.917,-16.199,40.676,-29.868,40.678,-31.155Z; M40.678,-31.155C40.622,-31.697,40.353,-32.417,40.109,-32.902C38.73,-35.563,35.898,-36.33,33.038,-36.185C33.038,-36.185,-3.785,-20.728,-3.785,-20.728C-18.316,-11.077,-32.995,0.97,-40.801,15.769C-40.815,16.347,-40.918,30.657,-40.738,31.231C-40.415,32.773,-39.274,34.132,-37.932,34.919C-37.932,34.919,-37.12,35.331,-37.12,35.331C-37.12,35.331,-36.252,35.654,-36.251,35.654C-33.994,36.33,-31.373,36.026,-29.382,34.746C-29.029,34.514,-28.389,33.969,-28.104,33.658C-28.104,33.658,-27.594,33.001,-27.594,33C-12.037,11.368,11.066,-5.286,37.077,-11.574C38.626,-12.254,39.983,-13.547,40.499,-15.183C40.917,-16.199,40.676,-29.868,40.678,-31.155Z; M40.158,-46.061C40.102,-46.603,40.353,-32.417,40.109,-32.902C38.73,-35.563,35.898,-36.33,33.038,-36.185C33.038,-36.185,-3.785,-20.728,-3.785,-20.728C-18.316,-11.077,-32.995,0.97,-40.801,15.769C-40.815,16.347,-40.888,17.22,-40.708,17.794C-40.385,19.336,-39.245,20.695,-37.903,21.482C-37.903,21.482,-37.091,21.894,-37.091,21.894C-37.091,21.894,-36.222,22.217,-36.221,22.217C-33.964,22.893,-31.343,22.589,-29.352,21.309C-28.999,21.077,-28.359,20.532,-28.074,20.221C-28.074,20.221,-27.564,19.564,-27.564,19.563C-12.007,-2.069,11.103,-20.067,37.114,-26.355C38.663,-27.035,39.482,-27.859,39.998,-29.495C40.416,-30.511,40.156,-44.774,40.158,-46.061Z; M40.158,-46.061C40.102,-46.603,40.353,-32.417,40.109,-32.902C38.73,-35.563,35.898,-36.33,33.038,-36.185C33.038,-36.185,-3.785,-20.728,-3.785,-20.728C-18.316,-11.077,-32.995,0.97,-40.801,15.769C-40.815,16.347,-40.888,17.22,-40.708,17.794C-40.385,19.336,-39.245,20.695,-37.903,21.482C-37.903,21.482,-37.091,21.894,-37.091,21.894C-37.091,21.894,-36.222,22.217,-36.221,22.217C-33.964,22.893,-31.343,22.589,-29.352,21.309C-28.999,21.077,-28.359,20.532,-28.074,20.221C-28.074,20.221,-27.564,19.564,-27.564,19.563C-12.007,-2.069,11.103,-20.067,37.114,-26.355C38.663,-27.035,39.482,-27.859,39.998,-29.495C40.416,-30.511,40.156,-44.774,40.158,-46.061Z" keyTimes="0; 0.373626; 0.483517; 0.659341; 0.769231; 1" keySplines="0 0 1 1; 0.333 0 0.667 1; 0.333 0 0.667 1; 0.333 0 0.667 1; 0 0 1 1" fill="freeze" /></path></g><g id="i14" transform="matrix(1,0,0,1,62.558,43.451)"><path fill="#ffffff" d="M-60.818,34.313C-60.644,37.977,-57.512,40.808,-54.162,41.804C-54.162,41.804,-52.859,42.123,-52.859,42.123C-51.225,42.419,-49.245,42.366,-47.631,41.977C-45.968,41.752,-42.441,39.215,-40.753,36.768C-26.941,17.751,-7.26,0.728,11.596,-10.463C24.914,-18.699,40.553,-22.851,53.948,-27.657C60.818,-31.982,57.203,-41.109,49.973,-42.162C49.323,-42.293,48.001,-42.419,47.338,-42.416C47.338,-42.416,45.984,-42.328,45.984,-42.328C45.984,-42.328,44.625,-42.088,44.625,-42.088C39.754,-40.945,34.024,-39.285,29.293,-37.654C29.293,-37.654,25.507,-36.292,25.507,-36.292C23.619,-35.584,19.851,-34.068,17.998,-33.271C-9.389,-21.402,-33.519,-2.237,-52.509,20.69C-55.369,24.926,-60.526,28.934,-60.818,34.313Z" /></g><g id="i15" transform="matrix(1,0,0,1,82.747,63.318)"><path fill="#ffffff" d="M-49.275,28.006C-49.135,30.993,-46.577,33.298,-43.846,34.108C-43.846,34.108,-42.784,34.367,-42.784,34.367C-42.784,34.367,-41.708,34.508,-41.708,34.508C-41.708,34.508,-40.63,34.534,-40.63,34.534C-40.63,34.534,-39.565,34.447,-39.565,34.447C-34.029,33.556,-30.389,26.457,-24.421,19.572C-6.836,0.449,15.696,-15.039,41.304,-21.24C42.867,-21.593,44.372,-22.361,45.505,-23.503C49.275,-27.001,46.62,-32.89,42.065,-34.046C41.149,-34.339,39.854,-34.534,38.892,-34.533C38.892,-34.533,37.781,-34.466,37.781,-34.466C37.026,-34.396,34.304,-33.69,33.524,-33.497C30.718,-32.761,26.92,-31.608,24.177,-30.663C22.63,-30.127,19.541,-28.974,18.021,-28.365C18.021,-28.365,14.971,-27.092,14.971,-27.092C-7.36,-17.42,-25.976,-3.05,-41.455,15.645C-41.455,15.645,-45.986,20.96,-45.986,20.96C-48.317,24.412,-49.275,25.652,-49.275,28.006Z" /></g><g id="i8" transform="matrix(1,0,0,1.037,100.599,81.673)"><path fill="#ffffff" d="M-41.44,23.652C-41.326,26.175,-39.169,28.121,-36.863,28.806C-36.863,28.806,-35.97,29.025,-35.969,29.025C-35.969,29.025,-35.064,29.143,-35.064,29.143C-35.064,29.143,-34.156,29.164,-34.156,29.164C-34.156,29.164,-33.258,29.089,-33.258,29.089C-29.201,28.349,-25.158,22.094,-20.536,16.583C-6.711,0.626,13.399,-12.722,35.006,-17.936C41.245,-19.171,41.86,-26.914,35.648,-28.762C34.878,-29.006,33.789,-29.164,32.98,-29.158C32.979,-29.158,32.05,-29.094,32.05,-29.094C32.05,-29.094,31.116,-28.926,31.116,-28.926C27.768,-28.137,23.826,-26.994,20.573,-25.872C18.233,-25.063,15.075,-23.837,12.801,-22.858C-0.985,-16.931,-19.644,-4.349,-31.729,9.313C-35.911,14.04,-41.86,20.966,-41.44,23.652Z" /></g></g></g></g></g></g></g><g display="none" transform="matrix(1,0,0,1,118.161,233.997)" visibility="hidden" id="m16"><animate repeatCount="indefinite" begin="0s" calcMode="discrete" dur="3.033s" values="hidden; visible; visible; visible" keyTimes="0; 0.142984; 0.99989; 1" attributeName="visibility" /><g id="i2" transform="matrix(1,0,0,1,137.832,79.36)"><path fill="#1056ad" d="M137.325,-219.11C137.325,-219.11,-137.826,-219.11,-137.826,-219.11C-137.826,-219.11,-137.569,-35.833,-137.569,-35.833C-137.569,-35.833,-137.494,-35.833,-137.494,-35.833C-137.55,-34.893,-137.582,-33.971,-137.561,-33.1C-137.282,-24.879,-133.876,-15.721,-129.038,-9.101C-126.899,-2.968,-46.157,56.751,-39.561,62.556C-36.524,64.86,-30.012,68.687,-26.524,70.221C-5.593,79.11,20.194,77.597,39.483,65.339C63.201,46.725,89.746,22.648,112.869,3.38C120.74,-3.065,129.511,-10.621,133.821,-20.087C136.239,-25.206,137.423,-30.537,137.559,-35.833C137.559,-35.833,137.582,-35.833,137.582,-35.833C137.582,-35.833,137.325,-219.11,137.325,-219.11Z" /></g></g></svg>